<?xml version="1.0" encoding="UTF-8"?>
<svg width="38px" height="42px" viewBox="0 0 38 42" version="1.1" xmlns="http://www.w3.org/2000/svg" xmlns:xlink="http://www.w3.org/1999/xlink">
    <!-- Generator: Sketch 55 (78076) - https://sketchapp.com -->
    <title>Group 11</title>
    <desc>Created with Sketch.</desc>
    <defs>
        <path d="M11.7078576,5.38738906 L25.4079836,2.28041354 L22.6287562,22.1091458 C22.1961516,25.1956155 19.8998269,27.6928988 16.8603948,28.3823148 L3.01465654,31.5228596 L5.94661262,11.6091844 C6.39783981,8.5444755 8.68682263,6.0725128 11.7078576,5.38738906 Z" id="path-1"></path>
        <path d="M11.7078576,5.38738906 L25.4079836,2.28041354 L22.6287562,22.1091458 C22.1961516,25.1956155 19.8998269,27.6928988 16.8603948,28.3823148 L3.01465654,31.5228596 L5.94661262,11.6091844 C6.39783981,8.5444755 8.68682263,6.0725128 11.7078576,5.38738906 Z" id="path-3"></path>
    </defs>
    <g id="Group-11" stroke="none" stroke-width="1" fill="none" fill-rule="evenodd">
        <g transform="translate(0.000000, -4.000000)" id="Group">
            <g>
                <g id="Rectangle-Copy-4" transform="translate(22.620485, 32.008649) rotate(2.000000) translate(-22.620485, -32.008649) translate(8.120485, 15.008649)">
                    <mask id="mask-2" fill="white">
                        <use xlink:href="#path-1"></use>
                    </mask>
                    <use id="Mask" fill="#A6CCFA" transform="translate(14.211320, 16.901637) rotate(-167.000000) translate(-14.211320, -16.901637) " xlink:href="#path-1"></use>
                    <path d="M15.4181417,4.77489802 L25.9417591,2.41716259 L23.7036513,17.3657701 C23.2502736,20.3939377 21.0016445,22.8424393 18.0229378,23.551422 L4.21488753,26.837972 L9.94548251,9.71338928 C10.7790472,7.22247027 12.8549913,5.34915213 15.4181417,4.77489802 Z" fill="#1A309D" transform="translate(15.078323, 14.627567) rotate(-167.000000) translate(-15.078323, -14.627567) "></path>
                </g>
                <g id="Group-9">
                    <g id="Rectangle-Copy-3" transform="translate(18.870485, 24.883649) rotate(2.000000) translate(-18.870485, -24.883649) translate(4.370485, 7.883649)">
                        <mask id="mask-4" fill="white">
                            <use xlink:href="#path-3"></use>
                        </mask>
                        <use id="Mask" fill="#2BA2F7" transform="translate(14.211320, 16.901637) rotate(-167.000000) translate(-14.211320, -16.901637) " xlink:href="#path-3"></use>
                        <path d="M15.4658835,4.8148254 L26.004956,2.43353362 L23.7928819,18.4232637 C23.3226992,21.8219266 20.6061536,24.4681741 17.1963339,24.849108 L4.35857418,26.2833003 L10.0215186,9.70591933 C10.8636726,7.24064573 12.9247929,5.38898201 15.4658835,4.8148254 Z" fill="#1A309D" transform="translate(15.181765, 14.358417) rotate(-167.000000) translate(-15.181765, -14.358417) "></path>
                    </g>
                    <path d="M12.7243665,6.12805543 L26.5,3 L23.6863966,22.8281421 C23.249295,25.9085024 20.955773,28.3991586 17.9218161,29.0882033 L4,32.25 L6.96701441,12.3366015 C7.42272022,9.2780887 9.70885606,6.81279229 12.7243665,6.12805543 Z" id="Rectangle" fill="#0154FF" transform="translate(15.250000, 17.625000) rotate(-165.000000) translate(-15.250000, -17.625000) "></path>
                </g>
            </g>
        </g>
    </g>
</svg>